<?xml version="1.0" encoding="UTF-8"?>
<svg id="Layer_1" xmlns="http://www.w3.org/2000/svg" version="1.1" viewBox="0 0 735.83 98.24">
  <!-- Generator: Adobe Illustrator 29.6.0, SVG Export Plug-In . SVG Version: 2.1.1 Build 207)  -->
  <defs>
    <style>
      .st0 {
        fill: #4e4e4e;
      }
    </style>
  </defs>
  <g id="salamone">
    <path class="st0" d="M18.62,99.27"/>
    <path class="st0" d="M151.25,96.13h-14.94l-12.28-15.9c-3.92,8.64-15.03,18-29.24,18-18.5,0-32.21-12.25-32.21-25.96,0-15.56,14.89-30.33,32.21-30.33,2.69,0,5.33.31,7.79.9l-13.82-21.87h16.82l45.67,75.16Z"/>
    <path class="st0" d="M287.62,96.13h-14.94l-12.28-15.9c-3.92,8.64-15.03,18-29.24,18-18.5,0-32.21-12.25-32.21-25.96,0-15.56,14.89-30.33,32.21-30.33,2.69,0,5.33.31,7.79.9l-13.82-21.87h16.82l45.67,75.16Z"/>
    <rect class="st0" x="164.25" width="14.95" height="96.13"/>
    <ellipse class="st0" cx="445.94" cy="68.27" rx="32.14" ry="28.35"/>
    <ellipse class="st0" cx="716.42" cy="79.48" rx="19.41" ry="17.04"/>
    <path class="st0" d="M639.25,58.67l30.19,29.38c-7.99,6.35-18.59,10.19-30.19,10.19-24.89,0-45.05-17.7-45.05-39.57s20.16-39.57,45.05-39.57,45.08,17.73,45.08,39.57h-45.08Z"/>
    <path class="st0" d="M397.85,96.14h-16.18c0-10.7-7.13-36.38-23.21-45.78v45.78l-14.66.05v-54.63c-7.62-5.02-17.9-8.12-27.39-9.1v63.73h-14.66V19.11c60.13,0,96.1,38.54,96.1,77.03Z"/>
    <path class="st0" d="M565.52,96.14h16.51c0-38.49-31.67-77.03-84.6-77.03v77.08h14.91v-58.82c15.94,0,53.18,20.27,53.18,58.76Z"/>
    <path class="st0" d="M42.94,74.94c0,16.04-14.29,24.33-31.43,24.33-4.08,0-8.12-.5-11.51-1.45l20.41-29.38c-2.99-2.99-13.75-9.79-13.75-20.22,0-17.43,14.52-29.13,33.04-29.13,2.04,0,8.75.92,10.08,1.24l-21.99,33.9s15.16,8.22,15.16,20.7Z"/>
  </g>
</svg>